<mxfile host="app.diagrams.net" agent="Mozilla/5.0 (Windows NT 10.0; Win64; x64) AppleWebKit/537.36 (KHTML, like Gecko) Chrome/131.0.0.0 Safari/537.36" version="24.9.1">
  <diagram name="PÃ¡gina-1" id="EYgn4dxLXQDhPXcIG2n-">
    <mxGraphModel dx="1008" dy="592" grid="1" gridSize="10" guides="1" tooltips="1" connect="1" arrows="1" fold="1" page="1" pageScale="1" pageWidth="827" pageHeight="1169" math="0" shadow="0">
      <root>
        <mxCell id="0" />
        <mxCell id="1" parent="0" />
        <mxCell id="z7ftqYcidsBtS01_TY97-4" value="" style="group" vertex="1" connectable="0" parent="1">
          <mxGeometry x="660" y="50" width="120" height="130" as="geometry" />
        </mxCell>
        <mxCell id="z7ftqYcidsBtS01_TY97-3" value="" style="rounded=0;whiteSpace=wrap;html=1;fillColor=#FFFFFF;strokeColor=#d79b00;strokeWidth=2;" vertex="1" parent="z7ftqYcidsBtS01_TY97-4">
          <mxGeometry width="120" height="130" as="geometry" />
        </mxCell>
        <mxCell id="z7ftqYcidsBtS01_TY97-1" value="" style="html=1;verticalLabelPosition=bottom;align=center;labelBackgroundColor=#ffffff;verticalAlign=top;strokeWidth=2;strokeColor=#000000;shadow=0;dashed=0;shape=mxgraph.ios7.icons.documents;" vertex="1" parent="z7ftqYcidsBtS01_TY97-4">
          <mxGeometry x="25" y="25" width="70" height="80" as="geometry" />
        </mxCell>
        <mxCell id="z7ftqYcidsBtS01_TY97-2" value="&lt;font style=&quot;font-size: 20px;&quot;&gt;&lt;i&gt;&lt;b&gt;ICO&lt;/b&gt;&lt;/i&gt;&lt;/font&gt;" style="text;html=1;align=center;verticalAlign=middle;whiteSpace=wrap;rounded=0;" vertex="1" parent="z7ftqYcidsBtS01_TY97-4">
          <mxGeometry x="22" y="55" width="60" height="30" as="geometry" />
        </mxCell>
        <mxCell id="z7ftqYcidsBtS01_TY97-12" style="edgeStyle=orthogonalEdgeStyle;rounded=0;orthogonalLoop=1;jettySize=auto;html=1;exitX=1;exitY=0.5;exitDx=0;exitDy=0;fillColor=#dae8fc;strokeColor=#6c8ebf;strokeWidth=2;" edge="1" parent="1" source="z7ftqYcidsBtS01_TY97-6" target="z7ftqYcidsBtS01_TY97-11">
          <mxGeometry relative="1" as="geometry" />
        </mxCell>
        <mxCell id="z7ftqYcidsBtS01_TY97-6" value="" style="rounded=0;whiteSpace=wrap;html=1;fillColor=#FFFFFF;strokeColor=#d79b00;strokeWidth=2;" vertex="1" parent="1">
          <mxGeometry x="40" y="200" width="550" height="280" as="geometry" />
        </mxCell>
        <mxCell id="z7ftqYcidsBtS01_TY97-7" value="&lt;b&gt;LOADER&lt;/b&gt;" style="text;html=1;align=center;verticalAlign=middle;whiteSpace=wrap;rounded=0;" vertex="1" parent="1">
          <mxGeometry x="50" y="210" width="60" height="30" as="geometry" />
        </mxCell>
        <mxCell id="z7ftqYcidsBtS01_TY97-10" style="edgeStyle=orthogonalEdgeStyle;rounded=0;orthogonalLoop=1;jettySize=auto;html=1;exitX=1;exitY=0.5;exitDx=0;exitDy=0;fillColor=#dae8fc;strokeColor=#6c8ebf;strokeWidth=2;" edge="1" parent="1" source="z7ftqYcidsBtS01_TY97-8" target="z7ftqYcidsBtS01_TY97-9">
          <mxGeometry relative="1" as="geometry" />
        </mxCell>
        <mxCell id="z7ftqYcidsBtS01_TY97-8" value="Get the icon from the executable itself and use the same method M to extract the payload from the icon." style="rounded=0;whiteSpace=wrap;html=1;fillColor=#dae8fc;strokeColor=#6c8ebf;" vertex="1" parent="1">
          <mxGeometry x="110" y="280" width="140" height="130" as="geometry" />
        </mxCell>
        <mxCell id="z7ftqYcidsBtS01_TY97-9" value="Routine to use the information obtained.&lt;div&gt;&lt;br&gt;&lt;/div&gt;&lt;div&gt;For example in the case of a PE launching it to execution&lt;/div&gt;" style="rounded=0;whiteSpace=wrap;html=1;fillColor=#dae8fc;strokeColor=#6c8ebf;" vertex="1" parent="1">
          <mxGeometry x="360" y="280" width="140" height="130" as="geometry" />
        </mxCell>
        <mxCell id="z7ftqYcidsBtS01_TY97-19" style="edgeStyle=orthogonalEdgeStyle;rounded=0;orthogonalLoop=1;jettySize=auto;html=1;exitX=1;exitY=0.5;exitDx=0;exitDy=0;fillColor=#dae8fc;strokeColor=#6c8ebf;strokeWidth=2;" edge="1" parent="1" source="z7ftqYcidsBtS01_TY97-11" target="z7ftqYcidsBtS01_TY97-16">
          <mxGeometry relative="1" as="geometry" />
        </mxCell>
        <mxCell id="z7ftqYcidsBtS01_TY97-11" value="Compile the executable by adding the icon with the hidden payload" style="whiteSpace=wrap;html=1;aspect=fixed;fillColor=#FFFFFF;strokeColor=#6c8ebf;strokeWidth=2;" vertex="1" parent="1">
          <mxGeometry x="665" y="285" width="110" height="110" as="geometry" />
        </mxCell>
        <mxCell id="z7ftqYcidsBtS01_TY97-13" style="edgeStyle=orthogonalEdgeStyle;rounded=0;orthogonalLoop=1;jettySize=auto;html=1;exitX=0.5;exitY=1;exitDx=0;exitDy=0;fillColor=#dae8fc;strokeColor=#6c8ebf;strokeWidth=2;" edge="1" parent="1" source="z7ftqYcidsBtS01_TY97-3" target="z7ftqYcidsBtS01_TY97-11">
          <mxGeometry relative="1" as="geometry" />
        </mxCell>
        <mxCell id="z7ftqYcidsBtS01_TY97-15" value="" style="group" vertex="1" connectable="0" parent="1">
          <mxGeometry x="900" y="275" width="120" height="130" as="geometry" />
        </mxCell>
        <mxCell id="z7ftqYcidsBtS01_TY97-16" value="" style="rounded=0;whiteSpace=wrap;html=1;fillColor=#FFFFFF;strokeColor=#d79b00;strokeWidth=2;" vertex="1" parent="z7ftqYcidsBtS01_TY97-15">
          <mxGeometry width="120" height="130" as="geometry" />
        </mxCell>
        <mxCell id="z7ftqYcidsBtS01_TY97-14" value="&quot;Iconic&quot; Executable" style="shape=image;html=1;verticalAlign=top;verticalLabelPosition=bottom;labelBackgroundColor=#ffffff;imageAspect=0;aspect=fixed;image=https://cdn3.iconfinder.com/data/icons/snowish/128x128/mimetypes/application-x-executable.png" vertex="1" parent="z7ftqYcidsBtS01_TY97-15">
          <mxGeometry x="23" y="20" width="74" height="74" as="geometry" />
        </mxCell>
      </root>
    </mxGraphModel>
  </diagram>
</mxfile>
